<svg width="408" height="141" viewBox="0 0 408 141" fill="none" xmlns="http://www.w3.org/2000/svg">
<path d="M386.284 140.423L384.494 136.246C389.865 134.456 393.993 132.069 396.877 129.085C399.762 126.2 401.204 123.167 401.204 119.984C401.204 117.696 400.358 116.552 398.668 116.552C397.573 116.552 396.231 116.801 394.639 117.298C393.147 117.895 391.407 118.194 389.418 118.194C386.135 118.194 383.45 117.199 381.361 115.21C379.372 113.121 378.377 110.386 378.377 107.004C378.377 103.324 379.67 100.39 382.256 98.2016C384.842 95.914 388.174 94.7701 392.252 94.7701C397.126 94.7701 400.905 96.461 403.591 99.8427C406.376 103.224 407.768 107.899 407.768 113.867C407.768 120.431 405.978 125.902 402.397 130.278C398.817 134.754 393.446 138.136 386.284 140.423Z" fill="#111111"/>
<path d="M329.342 119.089C321.882 119.089 315.268 117.646 309.499 114.762C303.73 111.778 299.205 107.302 295.923 101.335C292.64 95.2674 290.999 87.6586 290.999 78.508C290.999 69.3575 292.64 61.7486 295.923 55.6814C299.205 49.6142 303.73 45.1384 309.499 42.254C315.268 39.2701 321.882 37.7782 329.342 37.7782C336.901 37.7782 343.515 39.2701 349.185 42.254C354.854 45.1384 359.33 49.6142 362.612 55.6814C365.894 61.7486 367.536 69.3575 367.536 78.508C367.536 87.6586 365.894 95.2674 362.612 101.335C359.33 107.302 354.854 111.778 349.185 114.762C343.515 117.646 336.901 119.089 329.342 119.089ZM329.342 113.27C334.116 113.27 338.045 110.535 341.128 105.064C344.311 99.4946 345.902 90.6424 345.902 78.508C345.902 66.1747 344.311 57.2728 341.128 51.8024C338.045 46.2325 334.116 43.4475 329.342 43.4475C324.468 43.4475 320.49 46.2325 317.407 51.8024C314.323 57.2728 312.782 66.1747 312.782 78.508C312.782 90.6424 314.323 99.4946 317.407 105.064C320.49 110.535 324.468 113.27 329.342 113.27Z" fill="#111111"/>
<path d="M234.823 117V111.181C240.094 111.082 243.774 110.286 245.863 108.794C247.952 107.302 248.996 104.517 248.996 100.439V20.7701C248.996 16.2943 247.952 13.0618 245.863 11.0725C243.874 8.98382 240.193 7.84 234.823 7.64108V1.82252C236.911 1.92199 239 2.02145 241.089 2.12091C243.177 2.22037 245.216 2.2701 247.206 2.2701C251.482 2.2701 255.511 2.12091 259.29 1.82252C263.07 1.42467 266.501 0.877632 269.585 0.181396V100.439C269.585 104.517 270.629 107.302 272.718 108.794C274.906 110.286 278.586 111.082 283.758 111.181V117C282.266 116.9 280.177 116.851 277.492 116.851C274.906 116.751 272.021 116.652 268.839 116.552C265.755 116.453 262.672 116.403 259.589 116.403C255.013 116.403 250.339 116.503 245.564 116.702C240.79 116.801 237.21 116.9 234.823 117Z" fill="#111111"/>
<path d="M182.155 117V111.181C187.427 111.082 191.107 110.286 193.196 108.794C195.284 107.302 196.329 104.517 196.329 100.439V20.7701C196.329 16.2943 195.284 13.0618 193.196 11.0725C191.206 8.98382 187.526 7.84 182.155 7.64108V1.82252C184.244 1.92199 186.333 2.02145 188.421 2.12091C190.51 2.22037 192.549 2.2701 194.538 2.2701C198.815 2.2701 202.843 2.12091 206.623 1.82252C210.403 1.42467 213.834 0.877632 216.917 0.181396V100.439C216.917 104.517 217.962 107.302 220.05 108.794C222.239 110.286 225.919 111.082 231.091 111.181V117C229.599 116.9 227.51 116.851 224.825 116.851C222.239 116.751 219.354 116.652 216.171 116.552C213.088 116.453 210.005 116.403 206.921 116.403C202.346 116.403 197.671 116.503 192.897 116.702C188.123 116.801 184.542 116.9 182.155 117Z" fill="#111111"/>
<path d="M141.696 119.089C134.237 119.089 127.722 117.497 122.152 114.314C116.681 111.032 112.454 106.357 109.47 100.29C106.487 94.2231 104.995 87.0121 104.995 78.6572C104.995 69.9045 106.586 62.4946 109.769 56.4274C112.952 50.3602 117.427 45.7352 123.196 42.5524C128.965 39.3696 135.729 37.7782 143.487 37.7782C150.449 37.7782 156.367 39.0712 161.241 41.6572C166.114 44.1438 169.794 48.0726 172.281 53.4435C174.767 58.8145 175.911 65.7769 175.712 74.3306H119.765L119.616 68.6613H157.063C157.163 63.7876 156.715 59.5107 155.72 55.8306C154.825 52.051 153.333 49.0672 151.245 46.879C149.156 44.6908 146.421 43.5967 143.039 43.5967C138.762 43.5967 135.082 45.6855 131.999 49.8629C129.015 54.0403 127.224 60.6545 126.628 69.7056L126.926 70.3024C126.827 71.1976 126.777 72.1922 126.777 73.2863C126.777 74.3803 126.777 75.6236 126.777 77.0161C126.777 86.8629 128.617 94.5712 132.297 100.141C136.077 105.711 141.547 108.496 148.708 108.496C153.582 108.496 157.809 107.302 161.39 104.915C165.07 102.429 168.153 98.6492 170.64 93.5766L176.011 96.5605C173.126 103.821 168.75 109.391 162.882 113.27C157.013 117.149 149.952 119.089 141.696 119.089Z" fill="#111111"/>
<path d="M53.992 117V111.181C57.6721 111.082 60.1586 110.286 61.4517 108.794C62.8441 107.203 63.5404 104.418 63.5404 100.439V63.4395C63.5404 58.0685 62.496 54.0403 60.4073 51.3548C58.3186 48.6693 55.1855 47.3266 51.0081 47.3266C47.7258 47.3266 44.6922 48.2714 41.9073 50.1612C39.1224 52.051 36.6855 54.7862 34.5968 58.3669L34.746 51.8024C37.2326 47.3266 40.6143 43.8951 44.8912 41.508C49.2675 39.0215 54.1909 37.7782 59.6613 37.7782C67.6183 37.7782 73.6855 40.1653 77.8629 44.9395C82.1398 49.6142 84.2783 56.3776 84.2783 65.2298V100.439C84.2783 104.418 85.2729 107.203 87.2621 108.794C89.3508 110.286 93.031 111.082 98.3025 111.181V117C96.8105 116.9 94.7218 116.851 92.0363 116.851C89.4503 116.751 86.6156 116.652 83.5323 116.552C80.449 116.453 77.4154 116.403 74.4315 116.403C70.453 116.403 66.5242 116.503 62.6452 116.702C58.7662 116.801 55.8818 116.9 53.992 117ZM0.580688 117V111.181C5.95166 111.082 9.63176 110.286 11.621 108.794C13.7097 107.203 14.7541 104.418 14.7541 100.439V20.7701C14.7541 16.1948 13.7097 12.9126 11.621 10.9233C9.5323 8.93409 5.85219 7.84 0.580688 7.64108V1.82252C2.86832 1.92199 5.00676 2.02145 6.99601 2.12091C9.08472 2.22037 11.2232 2.2701 13.4113 2.2701C17.4893 2.2701 21.3186 2.12091 24.8992 1.82252C28.5793 1.42467 32.0605 0.877632 35.3428 0.181396V100.439C35.3428 104.418 36.039 107.203 37.4315 108.794C38.824 110.286 41.3603 111.082 45.0404 111.181V117C42.9517 116.9 40.0672 116.801 36.3871 116.702C32.8065 116.503 29.1264 116.403 25.3468 116.403C20.871 116.403 16.2957 116.503 11.621 116.702C6.94628 116.801 3.26617 116.9 0.580688 117Z" fill="#111111"/>
</svg>
