<svg width="80" height="78" viewBox="0 0 80 78" fill="none" xmlns="http://www.w3.org/2000/svg">
<mask id="path-1-outside-1_109_32" maskUnits="userSpaceOnUse" x="2" y="14" width="33" height="48" fill="black">
<rect fill="white" x="2" y="14" width="33" height="48"/>
<path d="M33.5918 48.8853C33.5918 56.4299 29.8035 60.2021 22.2271 60.2021H20.7437V15.437H33.5918V48.8853ZM3.11035 15.437H16.3413V48H14.188C8.3182 48 4.81706 46.0062 3.68457 42.0186C3.30176 40.7266 3.11035 39.2352 3.11035 37.5444V15.437Z"/>
</mask>
<path d="M33.5918 48.8853C33.5918 56.4299 29.8035 60.2021 22.2271 60.2021H20.7437V15.437H33.5918V48.8853ZM3.11035 15.437H16.3413V48H14.188C8.3182 48 4.81706 46.0062 3.68457 42.0186C3.30176 40.7266 3.11035 39.2352 3.11035 37.5444V15.437Z" fill="#80AAB0"/>
<path d="M20.7437 60.2021H19.7437V61.2021H20.7437V60.2021ZM20.7437 15.437V14.437H19.7437V15.437H20.7437ZM33.5918 15.437H34.5918V14.437H33.5918V15.437ZM3.11035 15.437V14.437H2.11035V15.437H3.11035ZM16.3413 15.437H17.3413V14.437H16.3413V15.437ZM16.3413 48V49H17.3413V48H16.3413ZM3.68457 42.0186L4.64659 41.7453L4.64337 41.7345L3.68457 42.0186ZM32.5918 48.8853C32.5918 52.5023 31.6845 55.0317 30.045 56.6643C28.4047 58.2977 25.8622 59.2021 22.2271 59.2021V61.2021C26.1684 61.2021 29.3083 60.2204 31.4562 58.0815C33.6049 55.9418 34.5918 52.8128 34.5918 48.8853H32.5918ZM22.2271 59.2021H20.7437V61.2021H22.2271V59.2021ZM21.7437 60.2021V15.437H19.7437V60.2021H21.7437ZM20.7437 16.437H33.5918V14.437H20.7437V16.437ZM32.5918 15.437V48.8853H34.5918V15.437H32.5918ZM3.11035 16.437H16.3413V14.437H3.11035V16.437ZM15.3413 15.437V48H17.3413V15.437H15.3413ZM16.3413 47H14.188V49H16.3413V47ZM14.188 47C11.3525 47 9.20096 46.5163 7.65465 45.6357C6.13907 44.7726 5.14347 43.4952 4.64653 41.7454L2.72261 42.2918C3.35816 44.5296 4.67937 46.2429 6.66493 47.3736C8.61976 48.4868 11.1537 49 14.188 49V47ZM4.64337 41.7345C4.2938 40.5547 4.11035 39.1623 4.11035 37.5444H2.11035C2.11035 39.3081 2.30972 40.8985 2.72577 42.3026L4.64337 41.7345ZM4.11035 37.5444V15.437H2.11035V37.5444H4.11035Z" fill="white" mask="url(#path-1-outside-1_109_32)"/>
<mask id="path-3-outside-2_109_32" maskUnits="userSpaceOnUse" x="38.4683" y="30.2078" width="34" height="35" fill="black">
<rect fill="white" x="38.4683" y="30.2078" width="34" height="35"/>
<path d="M70.7969 41.7654C70.7969 46.5824 68.6914 49.7486 64.4805 51.2639C66.8411 52.1412 68.6196 53.5688 69.8159 55.5466C70.8527 57.3012 71.3711 59.3429 71.3711 61.6716V64.2078H57.1113V31.5969H58.3555C62.5664 31.5969 65.6688 32.3944 67.6626 33.9895C69.7521 35.6643 70.7969 38.2563 70.7969 41.7654ZM40.2676 31.6448H53.1396V64.2078H40.2676V31.6448Z"/>
</mask>
<path d="M70.7969 41.7654C70.7969 46.5824 68.6914 49.7486 64.4805 51.2639C66.8411 52.1412 68.6196 53.5688 69.8159 55.5466C70.8527 57.3012 71.3711 59.3429 71.3711 61.6716V64.2078H57.1113V31.5969H58.3555C62.5664 31.5969 65.6688 32.3944 67.6626 33.9895C69.7521 35.6643 70.7969 38.2563 70.7969 41.7654ZM40.2676 31.6448H53.1396V64.2078H40.2676V31.6448Z" fill="#80AAB0"/>
<path d="M64.4805 51.2639L64.1419 50.323L61.5691 51.2488L64.1321 52.2013L64.4805 51.2639ZM69.8159 55.5466L70.6769 55.0379L70.6716 55.0291L69.8159 55.5466ZM71.3711 64.2078V65.2078H72.3711V64.2078H71.3711ZM57.1113 64.2078H56.1113V65.2078H57.1113V64.2078ZM57.1113 31.5969V30.5969H56.1113V31.5969H57.1113ZM67.6626 33.9895L68.288 33.2092L68.2873 33.2086L67.6626 33.9895ZM40.2676 31.6448V30.6448H39.2676V31.6448H40.2676ZM53.1396 31.6448H54.1396V30.6448H53.1396V31.6448ZM53.1396 64.2078V65.2078H54.1396V64.2078H53.1396ZM40.2676 64.2078H39.2676V65.2078H40.2676V64.2078ZM69.7969 41.7654C69.7969 44.0293 69.3029 45.8189 68.3851 47.1991C67.4713 48.5733 66.0823 49.6247 64.1419 50.323L64.8191 52.2048C67.0896 51.3878 68.8588 50.0985 70.0505 48.3065C71.2381 46.5206 71.7969 44.3185 71.7969 41.7654H69.7969ZM64.1321 52.2013C66.3013 53.0074 67.8915 54.2972 68.9603 56.0642L70.6716 55.0291C69.3478 52.8404 67.381 51.275 64.8288 50.3265L64.1321 52.2013ZM68.955 56.0554C69.8884 57.6349 70.3711 59.4958 70.3711 61.6716H72.3711C72.3711 59.1899 71.817 56.9675 70.6768 55.0379L68.955 56.0554ZM70.3711 61.6716V64.2078H72.3711V61.6716H70.3711ZM71.3711 63.2078H57.1113V65.2078H71.3711V63.2078ZM58.1113 64.2078V31.5969H56.1113V64.2078H58.1113ZM57.1113 32.5969H58.3555V30.5969H57.1113V32.5969ZM58.3555 32.5969C62.4751 32.5969 65.3043 33.3835 67.0379 34.7704L68.2873 33.2086C66.0332 31.4054 62.6577 30.5969 58.3555 30.5969V32.5969ZM67.0372 34.7698C68.8206 36.1993 69.7969 38.4581 69.7969 41.7654H71.7969C71.7969 38.0544 70.6836 35.1293 68.288 33.2092L67.0372 34.7698ZM40.2676 32.6448H53.1396V30.6448H40.2676V32.6448ZM52.1396 31.6448V64.2078H54.1396V31.6448H52.1396ZM53.1396 63.2078H40.2676V65.2078H53.1396V63.2078ZM41.2676 64.2078V31.6448H39.2676V64.2078H41.2676Z" fill="white" mask="url(#path-3-outside-2_109_32)"/>
<rect x="70.3734" y="16.7078" width="9.12658" height="9.12987" rx="4.56329" fill="#80AAB0" stroke="white"/>
</svg>
