<svg width="932" height="113" viewBox="0 0 932 113" fill="none" xmlns="http://www.w3.org/2000/svg">
<path fill-rule="evenodd" clip-rule="evenodd" d="M846.365 105.251L846.359 105.247C838.043 100.582 831.545 94.0838 826.879 85.7674C822.206 77.4372 819.889 67.6645 819.889 56.4838C819.889 45.4006 822.207 35.6306 826.877 27.2047L826.881 27.1967C831.644 18.7867 838.187 12.1915 846.5 7.42672L846.505 7.42413C854.932 2.65203 864.705 0.282227 875.792 0.282227C886.873 0.282227 896.642 2.59999 905.067 7.26819C913.488 11.8345 919.991 18.287 924.56 26.6116C929.23 34.9401 931.546 44.7101 931.546 55.8871C931.546 66.8729 929.227 76.6403 924.56 85.1617L924.558 85.1662C919.893 93.5836 913.345 100.182 904.93 104.947C896.502 109.719 886.729 112.089 875.643 112.089C864.563 112.089 854.796 109.821 846.372 105.254L846.365 105.251ZM923.683 27.0927C919.207 18.9368 912.842 12.6209 904.586 8.14512C896.331 3.56986 886.733 1.28223 875.792 1.28223C864.851 1.28223 855.253 3.61959 846.997 8.29432C838.842 12.9691 832.426 19.4341 827.752 27.6895C823.176 35.9449 820.889 45.543 820.889 56.4838C820.889 67.5242 823.176 77.1223 827.752 85.2782C832.327 93.4341 838.692 99.7997 846.848 104.375C855.104 108.851 864.702 111.089 875.643 111.089C886.584 111.089 896.182 108.751 904.437 104.077C912.692 99.4018 919.108 92.9368 923.683 84.6814C928.258 76.3266 930.546 66.7285 930.546 55.8871C930.546 44.8467 928.258 35.2486 923.683 27.0927ZM901.852 81.8136L901.855 81.8064C904.493 74.479 905.824 65.8952 905.824 56.0363C905.824 46.0795 904.444 37.502 901.711 30.2813C898.972 23.0401 895.279 17.53 890.668 13.6875L890.659 13.6803L890.651 13.6729C886.147 9.74394 881.105 7.80238 875.493 7.80238C869.785 7.80238 864.698 9.79149 860.196 13.8142L860.187 13.8221C855.672 17.7607 852.075 23.3693 849.431 30.711C846.893 37.939 845.61 46.4739 845.61 56.3346C845.61 66.2914 846.991 74.8689 849.723 82.0896C852.463 89.33 856.157 94.8936 860.773 98.8378C865.381 102.675 870.427 104.569 875.941 104.569C881.655 104.569 886.743 102.625 891.242 98.7024C895.762 94.662 899.31 89.0508 901.852 81.8136ZM891.905 99.4516C887.23 103.53 881.909 105.569 875.941 105.569C870.172 105.569 864.901 103.579 860.127 99.6008C855.352 95.5228 851.573 89.8037 848.788 82.4435C846.003 75.0833 844.61 66.3803 844.61 56.3346C844.61 46.3884 845.903 37.7352 848.489 30.375C851.175 22.9153 854.855 17.1465 859.53 13.0685C864.205 8.89109 869.526 6.80238 875.493 6.80238C881.362 6.80238 886.633 8.84136 891.308 12.9193C896.082 16.8978 899.862 22.5672 902.647 29.9274C905.432 37.2876 906.824 45.9906 906.824 56.0363C906.824 65.9825 905.481 74.6854 902.796 82.1451C900.21 89.5053 896.58 95.2742 891.905 99.4516Z" fill="white"/>
<path fill-rule="evenodd" clip-rule="evenodd" d="M755.89 109C756.209 108.976 756.542 108.954 756.89 108.933C759.464 108.779 762.811 108.702 766.93 108.702C771.704 108.602 777.224 108.552 783.49 108.552C789.259 108.552 794.431 108.602 799.007 108.702C803.143 108.702 806.539 108.779 809.196 108.935C809.542 108.955 809.875 108.977 810.196 109V103.181C805.621 102.983 802.189 102.585 799.902 101.988C797.714 101.292 796.222 100.098 795.426 98.4073C794.73 96.6169 794.382 93.9315 794.382 90.3508V22.0202C794.382 18.4395 794.73 15.754 795.426 13.9637C796.222 12.1734 797.714 10.9798 799.902 10.3831C802.189 9.68684 805.621 9.28899 810.196 9.18953V3.37183C809.875 3.38329 809.542 3.39389 809.196 3.40534C806.539 3.49335 803.143 3.58136 799.007 3.66936C794.431 3.76882 789.259 3.81855 783.49 3.81855C777.224 3.81855 771.704 3.76882 766.93 3.66936C762.811 3.58172 759.464 3.49409 756.89 3.40645C756.542 3.39462 756.209 3.3828 755.89 3.37097V9.18953C760.465 9.28899 763.847 9.68684 766.035 10.3831C768.322 11.0793 769.814 12.3226 770.511 14.1129C771.306 15.8038 771.704 18.4395 771.704 22.0202V90.3508C771.704 93.9315 771.356 96.6169 770.66 98.4073C769.964 100.198 768.472 101.391 766.184 101.988C763.996 102.585 760.564 102.983 755.89 103.181V109ZM796.349 14.3485C797.005 12.8892 798.225 11.877 800.165 11.3478L800.179 11.344L800.193 11.3398C802.346 10.6844 805.667 10.2882 810.218 10.1893L811.196 10.168V2.33462L810.16 2.37161C807.382 2.47083 803.658 2.57017 798.985 2.66959C794.419 2.76886 789.254 2.81855 783.49 2.81855C777.229 2.81855 771.716 2.76886 766.951 2.66959C762.279 2.57017 758.604 2.47084 755.927 2.37166L754.89 2.33325V10.168L755.868 10.1893C760.423 10.2883 763.686 10.685 765.732 11.3361L765.744 11.3398C767.817 11.9708 769.02 13.04 769.579 14.4754L769.591 14.5075L769.606 14.5387C770.304 16.0234 770.704 18.476 770.704 22.0202V90.3508C770.704 93.8957 770.355 96.4307 769.728 98.0448C769.175 99.4662 767.989 100.484 765.932 101.02L765.921 101.023C763.846 101.589 760.509 101.984 755.847 102.182L754.89 102.223V110.077L755.964 109.997C758.613 109.801 762.265 109.702 766.93 109.702H766.94L766.951 109.701C771.716 109.602 777.229 109.552 783.49 109.552C789.254 109.552 794.418 109.602 798.985 109.701L798.996 109.702H799.007C803.671 109.702 807.374 109.801 810.125 109.997L811.196 110.074V102.224L810.24 102.182C805.7 101.985 802.363 101.593 800.18 101.027C798.221 100.398 796.997 99.3741 796.345 98.0119C795.726 96.3964 795.382 93.8717 795.382 90.3508V22.0202C795.382 18.4917 795.727 15.9636 796.349 14.3485Z" fill="white"/>
<path fill-rule="evenodd" clip-rule="evenodd" d="M655.346 109C655.674 108.989 656.007 108.977 656.346 108.967C661.872 108.79 668.899 108.702 677.427 108.702C686.478 108.602 696.922 108.552 708.758 108.552C717.411 108.552 724.771 108.602 730.838 108.702C736.44 108.702 741.278 108.786 745.354 108.956C745.693 108.97 746.026 108.985 746.354 109C746.349 108.666 746.344 108.332 746.34 107.998C746.266 102.056 746.37 96.0241 746.653 89.9032C747.031 83.6625 747.589 77.3318 748.327 70.9113C748.365 70.5782 748.404 70.2449 748.443 69.9113H742.326C740.536 75.6801 738.547 80.6532 736.359 84.8306C734.27 88.9086 731.883 92.2903 729.197 94.9758C726.611 97.6613 723.578 99.6505 720.096 100.944C716.715 102.137 712.885 102.734 708.609 102.734H704.58C701.398 102.734 699.01 102.485 697.419 101.988C695.927 101.391 694.932 100.347 694.435 98.8548C694.037 97.2634 693.838 94.9758 693.838 91.9919V22.0202C693.838 18.4395 694.286 15.754 695.181 13.9637C696.076 12.1734 697.916 10.9798 700.701 10.3831C703.586 9.68684 707.962 9.28899 713.83 9.18953V3.37195C713.507 3.38204 713.174 3.39116 712.83 3.40126C709.789 3.49063 705.945 3.57999 701.298 3.66936C696.126 3.76882 690.009 3.81855 682.947 3.81855C677.576 3.81855 672.504 3.76882 667.729 3.66936C663.484 3.57903 659.69 3.4887 656.346 3.39836C656.008 3.38923 655.675 3.3801 655.346 3.37097V9.18953C659.922 9.28899 663.303 9.68684 665.492 10.3831C667.779 10.9798 669.271 12.1734 669.967 13.9637C670.763 15.6546 671.161 18.3401 671.161 22.0202V90.3508C671.161 93.832 670.813 96.4677 670.117 98.2581C669.42 100.048 667.928 101.292 665.641 101.988C663.453 102.585 660.021 102.983 655.346 103.181V109ZM665.363 101.027C663.288 101.591 659.954 101.984 655.304 102.182L654.346 102.223V110.036L655.381 109.999C661.034 109.801 668.382 109.702 677.427 109.702L677.438 109.702C686.485 109.602 696.924 109.552 708.758 109.552C717.408 109.552 724.762 109.602 730.822 109.701L730.83 109.702H730.838C736.896 109.702 742.052 109.801 746.308 109.999L747.371 110.048L747.354 108.984C747.255 102.742 747.354 96.4007 747.651 89.959C748.048 83.4155 748.643 76.7719 749.436 70.0281L749.568 68.9113H741.59L741.371 69.6149C739.594 75.3411 737.626 80.2554 735.473 84.3666L735.469 84.3748C733.418 88.3785 731.089 91.6703 728.49 94.2687L728.483 94.2754L728.477 94.2822C725.997 96.8579 723.092 98.7628 719.756 100.003C716.501 101.151 712.79 101.734 708.609 101.734H704.58C701.452 101.734 699.2 101.489 697.755 101.045C696.562 100.558 695.797 99.7492 695.396 98.5744C695.034 97.1025 694.838 94.9238 694.838 91.9919V22.0202C694.838 18.4906 695.285 15.9923 696.076 14.4109C696.784 12.9933 698.291 11.9222 700.911 11.3609L700.923 11.3582L700.936 11.3552C703.709 10.6857 707.996 10.2886 713.847 10.1894L714.83 10.1727V2.33923L713.799 2.37146C710.622 2.47074 706.449 2.57012 701.279 2.66954C696.115 2.76885 690.005 2.81855 682.947 2.81855C677.582 2.81855 672.517 2.76888 667.751 2.66958C663.078 2.57016 658.952 2.47074 655.374 2.37136L654.346 2.34281V10.168L655.325 10.1893C659.879 10.2883 663.142 10.685 665.188 11.336L665.214 11.344L665.239 11.3507C667.297 11.8874 668.483 12.9048 669.035 14.3262L669.048 14.3583L669.063 14.3895C669.76 15.8719 670.161 18.3716 670.161 22.0202V90.3508C670.161 93.792 669.813 96.2794 669.185 97.8956C668.628 99.3278 667.428 100.396 665.363 101.027Z" fill="white"/>
<path fill-rule="evenodd" clip-rule="evenodd" d="M560.454 105.251L560.447 105.247C552.131 100.582 545.633 94.0838 540.968 85.7674C536.295 77.4372 533.977 67.6645 533.977 56.4838C533.977 45.4006 536.296 35.6306 540.965 27.2047L540.97 27.1967C545.732 18.7867 552.276 12.1915 560.589 7.42672L560.593 7.42413C569.021 2.65203 578.793 0.282227 589.88 0.282227C600.962 0.282227 610.73 2.59999 619.155 7.26819C627.576 11.8345 634.08 18.287 638.648 26.6116C643.318 34.9401 645.634 44.7101 645.634 55.8871C645.634 66.8729 643.315 76.6403 638.648 85.1617L638.646 85.1662C633.981 93.5836 627.433 100.182 619.018 104.947C610.591 109.719 600.818 112.089 589.731 112.089C578.651 112.089 568.884 109.821 560.46 105.254L560.454 105.251ZM637.771 27.0927C633.296 18.9368 626.93 12.6209 618.675 8.14512C610.419 3.56986 600.821 1.28223 589.88 1.28223C578.939 1.28223 569.341 3.61959 561.086 8.29432C552.93 12.9691 546.515 19.4341 541.84 27.6895C537.265 35.9449 534.977 45.543 534.977 56.4838C534.977 67.5242 537.265 77.1223 541.84 85.2782C546.415 93.4341 552.781 99.7997 560.937 104.375C569.192 108.851 578.79 111.089 589.731 111.089C600.672 111.089 610.27 108.751 618.525 104.077C626.781 99.4018 633.196 92.9368 637.771 84.6814C642.347 76.3266 644.634 66.7285 644.634 55.8871C644.634 44.8467 642.347 35.2486 637.771 27.0927ZM615.941 81.8136L615.943 81.8064C618.581 74.479 619.913 65.8952 619.913 56.0363C619.913 46.0795 618.532 37.502 615.8 30.2813C613.06 23.0401 609.367 17.53 604.756 13.6875L604.747 13.6803L604.739 13.6729C600.235 9.74394 595.194 7.80238 589.582 7.80238C583.873 7.80238 578.786 9.79149 574.284 13.8142L574.276 13.8221C569.76 17.7607 566.163 23.3693 563.52 30.711C560.981 37.939 559.699 46.4739 559.699 56.3346C559.699 66.2914 561.079 74.8689 563.812 82.0896C566.551 89.33 570.245 94.8936 574.861 98.8378C579.469 102.675 584.516 104.569 590.029 104.569C595.743 104.569 600.832 102.625 605.331 98.7024C609.851 94.662 613.398 89.0508 615.941 81.8136ZM605.993 99.4516C601.318 103.53 595.997 105.569 590.029 105.569C584.261 105.569 578.989 103.579 574.215 99.6008C569.441 95.5228 565.661 89.8037 562.876 82.4435C560.091 75.0833 558.699 66.3803 558.699 56.3346C558.699 46.3884 559.992 37.7352 562.578 30.375C565.263 22.9153 568.943 17.1465 573.618 13.0685C578.293 8.89109 583.614 6.80238 589.582 6.80238C595.45 6.80238 600.722 8.84136 605.396 12.9193C610.171 16.8978 613.95 22.5672 616.735 29.9274C619.52 37.2876 620.913 45.9906 620.913 56.0363C620.913 65.9825 619.57 74.6854 616.884 82.1451C614.298 89.5053 610.668 95.2742 605.993 99.4516Z" fill="white"/>
<path fill-rule="evenodd" clip-rule="evenodd" d="M437.458 109C437.787 108.991 438.121 108.982 438.458 108.973C441.802 108.882 445.596 108.792 449.842 108.702C454.616 108.602 459.688 108.552 465.059 108.552C472.121 108.552 478.238 108.602 483.41 108.702C488.057 108.791 491.901 108.88 494.942 108.97C495.286 108.98 495.619 108.99 495.942 109V103.181C490.074 102.983 485.698 102.585 482.813 101.988C480.028 101.292 478.188 100.098 477.293 98.4073C476.398 96.617 475.95 93.9315 475.95 90.3509V59.9154H484.305C486.765 59.9154 488.914 60.2487 490.752 60.9154C491.663 61.246 492.498 61.6586 493.257 62.1533C495.644 63.6452 497.484 65.9826 498.777 69.1654C500.169 72.3482 501.114 76.5256 501.612 81.6976H507.281C507.265 81.3597 507.249 81.0264 507.233 80.6976C507.05 76.9616 506.867 73.8138 506.684 71.2541C506.585 68.3697 506.485 65.8334 506.386 63.6452C506.286 61.457 506.237 59.2689 506.237 57.0807V48.2783C506.237 45.2818 506.413 41.1394 506.766 35.8509C506.788 35.522 506.81 35.1886 506.833 34.8509H501.164C500.368 41.3159 498.578 46.1398 495.793 49.3226C494.337 51.0488 492.544 52.3068 490.415 53.0968C488.618 53.7635 486.581 54.0968 484.305 54.0968H475.95V9.63715H492.809C497.583 9.63715 501.562 10.5323 504.745 12.3226C508.027 14.113 510.713 17.0471 512.801 21.125C514.989 25.1035 516.829 30.4745 518.321 37.238H524.289C524.239 36.9052 524.189 36.5719 524.14 36.238C523.412 31.2815 522.816 26.1942 522.35 20.9759C521.974 15.6187 521.775 10.0839 521.755 4.37154C521.753 4.03893 521.753 3.70572 521.753 3.3719C521.753 3.37161 521.753 3.3722 521.753 3.3719C521.423 3.38326 521.09 3.39373 520.753 3.40509C518.138 3.4932 515.288 3.5813 512.204 3.6694C508.723 3.6694 504.993 3.71913 501.015 3.81859H488.483C465.828 3.81859 449.153 3.67844 438.458 3.39812C438.119 3.38923 437.786 3.38019 437.458 3.37101V9.18887C442.034 9.28833 445.415 9.68688 447.604 10.3831C449.891 11.0794 451.383 12.3226 452.079 14.113C452.875 15.8038 453.273 18.4396 453.273 22.0202V90.3509C453.273 93.9315 452.875 96.617 452.079 98.4073C451.383 100.098 449.891 101.292 447.604 101.988C445.415 102.585 442.034 102.983 437.458 103.181V109ZM447.326 101.027C445.25 101.591 441.965 101.985 437.415 102.182L436.458 102.224V110.028L437.486 110C441.064 109.9 445.19 109.801 449.862 109.701C454.629 109.602 459.694 109.552 465.059 109.552C472.117 109.552 478.227 109.602 483.391 109.701C488.561 109.801 492.734 109.9 495.911 110L496.942 110.032V102.215L495.976 102.182C490.135 101.984 485.834 101.589 483.036 101.013C480.407 100.352 478.891 99.2784 478.182 97.9497C477.395 96.3678 476.95 93.8727 476.95 90.3509V60.9154H484.305C487.857 60.9154 490.633 61.6358 492.711 62.9909L492.719 62.9962L492.727 63.0013C494.899 64.359 496.619 66.5102 497.851 69.5417L497.856 69.554L497.861 69.5662C499.196 72.6168 500.125 76.6797 500.616 81.7933L500.703 82.6976H508.33L508.28 81.6501C508.081 77.4775 507.882 73.9939 507.683 71.2014C507.584 68.3219 507.484 65.7879 507.385 63.5998C507.286 61.4267 507.237 59.2537 507.237 57.0807V48.2783C507.237 45.1298 507.434 40.6808 507.831 34.9197L507.905 33.8509H500.28L500.172 34.7287C499.388 41.0949 497.64 45.6932 495.041 48.6641L495.035 48.6709L495.029 48.6778C492.571 51.5912 489.047 53.0968 484.305 53.0968H476.95V10.6371H492.809C497.463 10.6371 501.26 11.5101 504.254 13.1943L504.266 13.2005C507.336 14.8749 509.893 17.641 511.911 21.5809L511.918 21.594L511.925 21.607C514.05 25.4702 515.864 30.7396 517.345 37.4534L517.518 38.238H525.451L525.278 37.0887C524.486 31.8414 523.842 26.4443 523.347 20.8972C522.951 15.2554 522.753 9.41334 522.753 3.37101V2.33594L521.718 2.37161C518.84 2.47086 515.664 2.57012 512.19 2.6694C508.707 2.66954 504.978 2.7193 501.002 2.81859H488.483C465.11 2.81859 448.114 2.66937 437.487 2.37141L436.458 2.34258V10.1681L437.437 10.1893C441.991 10.2883 445.255 10.6851 447.3 11.3361L447.312 11.3398C449.386 11.9708 450.589 13.0401 451.147 14.4754L451.16 14.5075L451.175 14.5387C451.873 16.0234 452.273 18.476 452.273 22.0202V90.3509C452.273 93.8884 451.875 96.4046 451.166 98.0012L451.16 98.0138L451.155 98.0266C450.607 99.357 449.413 100.389 447.326 101.027Z" fill="white"/>
<path fill-rule="evenodd" clip-rule="evenodd" d="M350.311 109C350.634 108.991 350.968 108.981 351.311 108.972C354.568 108.882 358.76 108.792 363.888 108.702C369.557 108.602 375.724 108.552 382.388 108.552C388.654 108.552 394.572 108.602 400.142 108.702C405.284 108.792 409.526 108.882 412.868 108.972C413.211 108.982 413.544 108.991 413.868 109V103.181C408.099 103.082 403.723 102.734 400.739 102.137C397.854 101.441 395.915 100.098 394.92 98.1089C393.926 96.1197 393.428 93.1358 393.428 89.1573V9.63714H398.053C401.435 9.63714 404.419 10.2339 407.005 11.4275C409.591 12.5215 411.878 14.3119 413.868 16.7984C415.956 19.1855 417.797 22.3683 419.388 26.3468C420.979 30.3253 422.422 35.0995 423.715 40.6694H429.682C429.635 40.3359 429.588 40.0026 429.541 39.6694C428.719 33.7418 428.119 27.8587 427.743 22.0202C427.366 16.1817 427.123 10.2986 427.014 4.37088C427.008 4.03847 427.002 3.70593 426.997 3.37324C426.997 3.3725 426.997 3.37175 426.997 3.37101C426.666 3.37852 426.333 3.38603 425.997 3.39354C421.882 3.48549 417.341 3.57744 412.376 3.6694C407.104 3.76886 401.833 3.81859 396.561 3.81859H367.319C362.048 3.81859 356.776 3.76886 351.505 3.6694C346.724 3.57746 342.283 3.48551 338.182 3.39357C337.846 3.38605 337.513 3.37853 337.182 3.37101C337.177 3.70444 337.171 4.03773 337.165 4.37088C337.056 10.2986 336.813 16.1817 336.436 22.0202C336.06 27.8587 335.46 33.7418 334.638 39.6694C334.591 40.0026 334.544 40.3359 334.497 40.6694H340.465C342.155 33.2097 344.145 27.1922 346.432 22.617C348.72 18.0417 351.455 14.7594 354.638 12.7702C357.821 10.6815 361.6 9.63714 365.977 9.63714H370.751V89.1573C370.751 93.1358 370.253 96.1197 369.259 98.1089C368.264 100.098 366.275 101.441 363.291 102.137C360.407 102.734 356.08 103.082 350.311 103.181V109ZM369.751 10.6371H365.977C361.765 10.6371 358.183 11.6398 355.187 13.6063L355.177 13.6123L355.168 13.6182C352.188 15.4807 349.561 18.5959 347.327 23.0642C345.088 27.5416 343.121 33.4746 341.44 40.8904L341.263 41.6694H333.344L333.507 40.528C334.398 34.2868 335.042 28.0961 335.438 21.9558C335.835 15.8055 336.083 9.60531 336.182 3.35514L336.198 2.34839L337.205 2.37127C341.58 2.4707 346.353 2.57013 351.524 2.66957C356.789 2.76892 362.054 2.81859 367.319 2.81859H396.561C401.827 2.81859 407.092 2.76892 412.357 2.66957C417.727 2.57013 422.599 2.47069 426.974 2.37127L427.981 2.34839L427.997 3.35514C428.096 9.60531 428.344 15.8055 428.741 21.9558C429.137 28.0961 429.781 34.2868 430.672 40.528L430.835 41.6694H422.92L422.74 40.8955C421.455 35.3599 420.027 30.6369 418.459 26.7182C416.896 22.8103 415.108 19.7349 413.115 17.4569L413.101 17.4403L413.087 17.4231C411.187 15.0487 409.029 13.3695 406.615 12.3484L406.6 12.3422L406.586 12.3354C404.153 11.2128 401.317 10.6371 398.053 10.6371H394.428V89.1573C394.428 93.0847 394.924 95.8814 395.815 97.6617C396.635 99.3023 398.266 100.508 400.954 101.16C403.848 101.737 408.146 102.083 413.885 102.182L414.868 102.199V110.029L413.839 110C410.363 109.9 405.792 109.801 400.124 109.701C394.561 109.602 388.649 109.552 382.388 109.552C375.729 109.552 369.568 109.602 363.905 109.701C358.238 109.801 353.717 109.9 350.341 110L349.311 110.03V102.199L350.294 102.182C356.039 102.083 360.286 101.736 363.076 101.16C365.878 100.504 367.549 99.2923 368.364 97.6617C369.255 95.8814 369.751 93.0847 369.751 89.1573V10.6371Z" fill="white"/>
<path fill-rule="evenodd" clip-rule="evenodd" d="M226.255 109C226.571 108.981 226.905 108.963 227.255 108.945C232.404 108.683 241.171 108.552 253.557 108.552C265.756 108.552 274.424 108.683 279.561 108.945C279.911 108.963 280.244 108.981 280.561 109V103.181C276.086 102.982 272.704 102.585 270.416 101.988C268.129 101.292 266.587 100.048 265.791 98.258C265.095 96.4677 264.747 93.832 264.747 90.3508V60.2137H274.295C278.075 60.2137 281.059 60.711 283.247 61.7056C285.534 62.7002 287.325 64.3414 288.618 66.629C290.01 68.8172 291.154 71.9502 292.049 76.0282L295.182 91.8427C296.575 98.8051 298.862 103.778 302.045 106.762C305.327 109.646 310.151 111.089 316.517 111.089C320.794 111.089 324.474 110.392 327.557 109C330.641 107.607 333.475 105.419 336.061 102.435L333.227 98.1088C332.98 98.3557 332.733 98.5872 332.486 98.8034C331.738 99.4584 330.991 99.9728 330.243 100.347C329.348 100.745 328.303 100.944 327.11 100.944C324.922 101.043 323.181 100.297 321.888 98.7056C320.595 97.1142 319.501 94.4287 318.606 90.6492L316.368 81.25C314.776 74.7849 312.439 69.7621 309.356 66.1814C306.272 62.6008 301.846 60.0645 296.077 58.5725C294.895 58.2666 293.63 57.9921 292.284 57.7489C291.342 57.5786 290.359 57.4237 289.337 57.2842C290.338 57.1178 291.315 56.9331 292.269 56.7302C294.516 56.2521 296.631 55.6726 298.614 54.9919C305.377 52.7043 310.549 49.422 314.13 45.1451C317.711 40.8683 319.501 35.7459 319.501 29.7782C319.501 21.125 315.97 14.5605 308.908 10.0847C301.846 5.60885 291.403 3.37094 277.577 3.37094C276.284 3.37094 274.743 3.42067 272.952 3.52013C271.262 3.52013 269.322 3.56987 267.134 3.66933H235.206C231.729 3.58652 229.078 3.50372 227.255 3.42092C226.888 3.40426 226.555 3.3876 226.255 3.37094V9.1895C230.83 9.28896 234.212 9.68681 236.4 10.383C238.688 11.0793 240.18 12.3226 240.876 14.1129C241.672 15.8037 242.069 18.4395 242.069 22.0201V90.3508C242.069 93.9314 241.672 96.6169 240.876 98.4072C240.18 100.098 238.688 101.292 236.4 101.988C234.212 102.585 230.83 102.982 226.255 103.181V109ZM236.123 101.027C234.046 101.591 230.761 101.985 226.211 102.182L225.255 102.224V110.062L226.315 109.998C231.254 109.702 240.327 109.552 253.557 109.552C266.589 109.552 275.562 109.702 280.501 109.998L281.561 110.062V102.225L280.606 102.182C276.163 101.985 272.872 101.592 270.688 101.025C268.633 100.396 267.368 99.3253 266.715 97.8732C266.091 96.2564 265.747 93.7761 265.747 90.3508V61.2137H274.295C278.005 61.2137 280.828 61.7046 282.833 62.616L282.841 62.6194L282.848 62.6227C284.925 63.5258 286.555 65.0118 287.747 67.1211L287.76 67.1438L287.774 67.1659C289.076 69.2119 290.187 72.2133 291.07 76.2331C291.071 76.2363 291.072 76.2394 291.072 76.2426L294.201 92.037L294.202 92.0388C295.612 99.0883 297.958 104.301 301.361 107.492L301.373 107.503L301.385 107.513C304.918 110.618 310.017 112.089 316.517 112.089C320.9 112.089 324.727 111.376 327.969 109.911C331.204 108.45 334.152 106.165 336.817 103.09L337.312 102.519L333.389 96.5321L332.52 97.4017C331.589 98.3322 330.687 99.0033 329.816 99.442C329.078 99.7663 328.183 99.9435 327.11 99.9435H327.087L327.064 99.9445C325.168 100.031 323.742 99.4014 322.664 98.075C321.517 96.6638 320.465 94.1601 319.579 90.4187L317.341 81.0183L317.339 81.011C315.724 74.4518 313.333 69.2673 310.113 65.5289C306.866 61.7578 302.242 59.134 296.328 57.6044C295.786 57.4643 295.228 57.3307 294.654 57.2037C296.141 56.8297 297.568 56.4081 298.936 55.9386C298.937 55.9383 298.938 55.938 298.938 55.9377M236.123 101.027C238.21 100.389 239.403 99.3569 239.951 98.0265L239.956 98.0137L239.962 98.0011C240.672 96.4046 241.069 93.8884 241.069 90.3508V22.0201C241.069 18.476 240.67 16.0233 239.971 14.5387L239.956 14.5075L239.944 14.4753C239.386 13.04 238.182 11.9707 236.109 11.3397L236.097 11.336C234.051 10.685 230.788 10.2883 226.233 10.1893L225.255 10.168V2.31384L226.31 2.37248C228.082 2.47089 231.048 2.56997 235.218 2.66933H267.111C269.289 2.57059 271.228 2.52068 272.925 2.52014C274.715 2.42103 276.267 2.37094 277.577 2.37094C291.481 2.37094 302.148 4.61625 309.443 9.24002C316.807 13.9068 320.501 20.7969 320.501 29.7782C320.501 35.963 318.639 41.3171 314.897 45.7871C311.17 50.2388 305.825 53.6084 298.936 55.9386M274.295 54.5443C282.053 54.5443 287.822 52.6545 291.602 48.875C295.381 44.9959 297.271 39.1277 297.271 31.2701C297.271 23.8105 295.481 18.2903 291.9 14.7097C288.419 11.0295 282.998 9.1895 275.638 9.1895H264.747V54.5443H274.295ZM265.747 53.5443H274.295C281.905 53.5443 287.368 51.691 290.89 48.1725C294.417 44.5499 296.271 38.9809 296.271 31.2701C296.271 23.9508 294.513 18.737 291.193 15.4168L291.183 15.4069L291.174 15.3969C287.953 11.9923 282.849 10.1895 275.638 10.1895H265.747V53.5443Z" fill="white"/>
<path fill-rule="evenodd" clip-rule="evenodd" d="M131.362 105.251L131.356 105.247C123.039 100.582 116.541 94.0838 111.876 85.7674C107.203 77.4372 104.885 67.6645 104.885 56.4838C104.885 45.4006 107.204 35.6306 111.874 27.2047L111.878 27.1967C116.64 18.7867 123.184 12.1915 131.497 7.42672L131.501 7.42413C139.929 2.65203 149.702 0.282227 160.788 0.282227C171.87 0.282227 181.639 2.60009 190.064 7.26853C198.483 11.8339 204.986 18.2848 209.554 26.607C214.225 34.9365 216.543 44.708 216.543 55.8871C216.543 66.8729 214.223 76.6403 209.557 85.1617L209.554 85.1662C204.889 93.5836 198.341 100.182 189.926 104.947C181.499 109.719 171.726 112.089 160.639 112.089C149.56 112.089 139.793 109.821 131.368 105.254L131.362 105.251ZM208.68 27.0927C204.204 18.9368 197.838 12.6209 189.583 8.14512C181.327 3.56986 171.729 1.28223 160.788 1.28223C149.848 1.28223 140.25 3.61959 131.994 8.29432C123.838 12.9691 117.423 19.4341 112.748 27.6895C108.173 35.9449 105.885 45.543 105.885 56.4838C105.885 67.5242 108.173 77.1223 112.748 85.2782C117.323 93.4341 123.689 99.7997 131.845 104.375C140.1 108.851 149.698 111.089 160.639 111.089C171.58 111.089 181.178 108.751 189.434 104.077C197.689 99.4018 204.104 92.9368 208.68 84.6814C213.255 76.3266 215.543 66.7285 215.543 55.8871C215.543 44.8467 213.255 35.2486 208.68 27.0927ZM186.849 81.8136L186.852 81.8064C189.489 74.479 190.821 65.8952 190.821 56.0363C190.821 46.0795 189.44 37.502 186.708 30.2813C183.968 23.0401 180.275 17.53 175.664 13.6875L175.656 13.6803L175.647 13.6729C171.143 9.74394 166.102 7.80238 160.49 7.80238C154.781 7.80238 149.694 9.79149 145.193 13.8142L145.184 13.8221C140.669 17.7604 137.072 23.3684 134.429 30.7094C131.889 37.9377 130.607 46.4731 130.607 56.3346C130.607 66.2914 131.988 74.8689 134.72 82.0896C137.459 89.3295 141.153 94.8927 145.768 98.8368C150.377 102.675 155.424 104.569 160.938 104.569C166.651 104.569 171.74 102.625 176.239 98.7023C180.759 94.6619 184.306 89.0508 186.849 81.8136ZM145.123 99.6008C140.349 95.5228 136.569 89.8037 133.784 82.4435C131 75.0833 129.607 66.3803 129.607 56.3346C129.607 46.3884 130.9 37.7352 133.486 30.375C136.172 22.9153 139.852 17.1465 144.526 13.0685C149.201 8.89109 154.522 6.80238 160.49 6.80238C166.358 6.80238 171.63 8.84136 176.305 12.9193C181.079 16.8978 184.858 22.5672 187.643 29.9274C190.428 37.2876 191.821 45.9906 191.821 56.0363C191.821 65.9825 190.478 74.6854 187.793 82.1451C185.206 89.5053 181.576 95.2742 176.901 99.4516C172.227 103.53 166.905 105.569 160.938 105.569C155.169 105.569 149.897 103.579 145.123 99.6008Z" fill="white"/>
<path fill-rule="evenodd" clip-rule="evenodd" d="M1.86292 109C2.19064 108.99 2.52398 108.981 2.86292 108.971C6.02137 108.881 9.66653 108.791 13.7984 108.702C18.3737 108.602 23.6452 108.552 29.6129 108.552C34.2876 108.552 38.6143 108.602 42.5928 108.702C46.6707 108.702 50.2514 108.751 53.3347 108.851C55.9015 108.851 58.0547 108.885 59.7944 108.954C60.1444 108.968 60.4778 108.983 60.7944 109V103.182C54.9261 103.082 50.5 102.684 47.5161 101.988C44.6317 101.292 42.6922 100.048 41.6976 98.2581C40.8024 96.3683 40.3548 93.5834 40.3548 89.9033V67.2232C40.6837 67.2689 41.017 67.3131 41.3548 67.3559C42.2808 67.473 43.2405 67.5788 44.2339 67.6734C46.3226 67.7729 48.4113 67.8226 50.5 67.8226C60.0484 67.8226 68.2043 66.5296 74.9678 63.9436C81.7312 61.2581 86.9032 57.4288 90.4839 52.4557C94.0645 47.4826 95.8549 41.5148 95.8549 34.5525C95.8549 24.5068 92.2245 16.8482 84.9637 11.5767C77.703 6.20569 67.16 3.52021 53.3347 3.52021C51.0471 3.52021 47.7151 3.56994 43.3387 3.6694H7.08469C5.41766 3.59363 4.0104 3.51785 2.86292 3.44208C2.50419 3.41839 2.17086 3.3947 1.86292 3.37101V9.18957C6.43818 9.28903 9.8199 9.68688 12.0081 10.3831C14.2957 11.0794 15.7876 12.3226 16.4839 14.113C17.2796 15.8038 17.6774 18.4396 17.6774 22.0202V90.3509C17.6774 93.9315 17.2796 96.617 16.4839 98.4073C15.7876 100.098 14.2957 101.292 12.0081 101.988C9.8199 102.585 6.43818 102.983 1.86292 103.181V109ZM11.7307 101.027C9.65407 101.591 6.36916 101.985 1.81948 102.182L0.862915 102.224V110.03L1.89231 110C5.27077 109.9 9.2466 109.801 13.8201 109.701C18.3864 109.602 23.6504 109.552 29.6129 109.552C34.2807 109.552 38.5989 109.602 42.5678 109.701L42.5803 109.702H42.5928C46.6631 109.702 50.2326 109.751 53.3024 109.85L53.3186 109.851H53.3347C56.4099 109.851 58.8769 109.901 60.7418 109.999L61.7944 110.054V102.198L60.8113 102.182C54.9643 102.083 50.6248 101.686 47.7467 101.015C45.0302 100.358 43.3996 99.2393 42.5873 97.8002C41.7955 96.1093 41.3548 93.5101 41.3548 89.9033V68.3637C42.2528 68.476 43.1809 68.5777 44.1391 68.6689L44.1627 68.6712L44.1863 68.6723C46.2909 68.7725 48.3954 68.8226 50.5 68.8226C60.1337 68.8226 68.4175 67.5187 75.3249 64.8776L75.3368 64.873C82.2439 62.1305 87.5838 58.1951 91.2954 53.04C95.0149 47.8741 96.8549 41.6948 96.8549 34.5525C96.8549 24.2326 93.1063 16.2544 85.5552 10.7703C78.0527 5.22208 67.2651 2.52021 53.3347 2.52021C51.0375 2.52021 47.7002 2.57006 43.3273 2.6694H7.10743C4.93436 2.57049 3.21312 2.47192 1.93961 2.37396L0.862915 2.29114V10.1681L1.84118 10.1893C6.39587 10.2883 9.65895 10.6851 11.7049 11.336L11.7169 11.3398C13.7902 11.9708 14.9937 13.0401 15.5519 14.4754L15.5644 14.5075L15.5791 14.5387C16.2777 16.0234 16.6774 18.476 16.6774 22.0202V90.3509C16.6774 93.8884 16.2796 96.4046 15.5701 98.0012L15.5645 98.0138L15.5592 98.0266C15.0114 99.357 13.8178 100.389 11.7307 101.027ZM41.3548 61.6831C43.4865 61.8971 45.6894 62.0041 47.9637 62.0041C56.3186 62.0041 62.4355 59.8656 66.3145 55.5888C70.1936 51.2124 72.1331 44.3992 72.1331 35.1492C72.1331 26.1976 70.3925 19.6331 66.9113 15.4557C63.5296 11.2783 58.2083 9.18957 50.9476 9.18957H40.3548V61.5742C40.6864 61.6131 41.0198 61.6494 41.3548 61.6831ZM41.3548 60.678C43.4823 60.8952 45.6851 61.0041 47.9637 61.0041C56.1621 61.0041 61.9523 58.907 65.5702 54.9209C69.213 50.8079 71.1331 44.2866 71.1331 35.1492C71.1331 26.2915 69.4043 20.0093 66.1431 16.0959L66.1385 16.0904L66.1341 16.0849C63.0033 12.2175 58.0193 10.1896 50.9476 10.1896H41.3548V60.678Z" fill="white"/>
</svg>
