<svg width="930" height="111" viewBox="0 0 930 111" fill="none" xmlns="http://www.w3.org/2000/svg">
<path d="M874.643 110.089C863.702 110.089 854.104 107.851 845.848 103.375C837.692 98.7997 831.327 92.4341 826.752 84.2782C822.176 76.1223 819.889 66.5242 819.889 55.4838C819.889 44.543 822.176 34.9449 826.752 26.6895C831.426 18.4341 837.842 11.9691 845.997 7.29432C854.253 2.61959 863.851 0.282227 874.792 0.282227C885.733 0.282227 895.331 2.56986 903.586 7.14512C911.842 11.6209 918.207 17.9368 922.683 26.0927C927.258 34.2486 929.546 43.8467 929.546 54.8871C929.546 65.7285 927.258 75.3266 922.683 83.6814C918.108 91.9368 911.692 98.4018 903.437 103.077C895.182 107.751 885.584 110.089 874.643 110.089ZM874.941 104.569C880.909 104.569 886.23 102.53 890.905 98.4516C895.58 94.2742 899.21 88.5053 901.796 81.1451C904.481 73.6854 905.824 64.9825 905.824 55.0363C905.824 44.9906 904.432 36.2876 901.647 28.9274C898.862 21.5672 895.082 15.8978 890.308 11.9193C885.633 7.84136 880.362 5.80238 874.493 5.80238C868.526 5.80238 863.205 7.89109 858.53 12.0685C853.855 16.1465 850.175 21.9153 847.489 29.375C844.903 36.7352 843.61 45.3884 843.61 55.3346C843.61 65.3803 845.003 74.0833 847.788 81.4435C850.573 88.8037 854.352 94.5228 859.127 98.6008C863.901 102.579 869.172 104.569 874.941 104.569Z" fill="#111111"/>
<path d="M754.89 108V102.181C759.564 101.983 762.996 101.585 765.184 100.988C767.472 100.391 768.964 99.1976 769.66 97.4073C770.356 95.6169 770.704 92.9315 770.704 89.3508V21.0202C770.704 17.4395 770.306 14.8038 769.511 13.1129C768.814 11.3226 767.322 10.0793 765.035 9.38307C762.847 8.68684 759.465 8.28899 754.89 8.18953V2.37097C757.575 2.47043 761.255 2.5699 765.93 2.66936C770.704 2.76882 776.224 2.81855 782.49 2.81855C788.259 2.81855 793.431 2.76882 798.007 2.66936C802.681 2.5699 806.411 2.47043 809.196 2.37097V8.18953C804.621 8.28899 801.189 8.68684 798.902 9.38307C796.714 9.97985 795.222 11.1734 794.426 12.9637C793.73 14.754 793.382 17.4395 793.382 21.0202V89.3508C793.382 92.9315 793.73 95.6169 794.426 97.4073C795.222 99.0981 796.714 100.292 798.902 100.988C801.189 101.585 804.621 101.983 809.196 102.181V108C806.411 107.801 802.681 107.702 798.007 107.702C793.431 107.602 788.259 107.552 782.49 107.552C776.224 107.552 770.704 107.602 765.93 107.702C761.255 107.702 757.575 107.801 754.89 108Z" fill="#111111"/>
<path d="M654.346 108V102.181C659.021 101.983 662.453 101.585 664.641 100.988C666.928 100.292 668.42 99.0484 669.117 97.2581C669.813 95.4677 670.161 92.832 670.161 89.3508V21.0202C670.161 17.3401 669.763 14.6546 668.967 12.9637C668.271 11.1734 666.779 9.97985 664.492 9.38307C662.303 8.68684 658.922 8.28899 654.346 8.18953V2.37097C657.927 2.47043 662.055 2.5699 666.729 2.66936C671.504 2.76882 676.576 2.81855 681.947 2.81855C689.009 2.81855 695.126 2.76882 700.298 2.66936C705.47 2.5699 709.648 2.47043 712.83 2.37097V8.18953C706.962 8.28899 702.586 8.68684 699.701 9.38307C696.916 9.97985 695.076 11.1734 694.181 12.9637C693.286 14.754 692.838 17.4395 692.838 21.0202V90.9919C692.838 93.9758 693.037 96.2634 693.435 97.8548C693.932 99.3468 694.927 100.391 696.419 100.988C698.01 101.485 700.398 101.734 703.58 101.734H707.609C711.885 101.734 715.715 101.137 719.096 99.9436C722.578 98.6505 725.611 96.6613 728.197 93.9758C730.883 91.2903 733.27 87.9086 735.359 83.8306C737.547 79.6532 739.536 74.6801 741.326 68.9113H747.443C746.647 75.6747 746.051 82.3387 745.653 88.9032C745.355 95.3683 745.255 101.734 745.354 108C741.078 107.801 735.906 107.702 729.838 107.702C723.771 107.602 716.411 107.552 707.758 107.552C695.922 107.552 685.478 107.602 676.427 107.702C667.376 107.702 660.016 107.801 654.346 108Z" fill="#111111"/>
<path d="M588.731 110.089C577.79 110.089 568.192 107.851 559.937 103.375C551.781 98.7997 545.415 92.4341 540.84 84.2782C536.265 76.1223 533.977 66.5242 533.977 55.4838C533.977 44.543 536.265 34.9449 540.84 26.6895C545.515 18.4341 551.93 11.9691 560.086 7.29432C568.341 2.61959 577.939 0.282227 588.88 0.282227C599.821 0.282227 609.419 2.56986 617.675 7.14512C625.93 11.6209 632.296 17.9368 636.771 26.0927C641.347 34.2486 643.634 43.8467 643.634 54.8871C643.634 65.7285 641.347 75.3266 636.771 83.6814C632.196 91.9368 625.781 98.4018 617.525 103.077C609.27 107.751 599.672 110.089 588.731 110.089ZM589.029 104.569C594.997 104.569 600.318 102.53 604.993 98.4516C609.668 94.2742 613.298 88.5053 615.884 81.1451C618.57 73.6854 619.913 64.9825 619.913 55.0363C619.913 44.9906 618.52 36.2876 615.735 28.9274C612.95 21.5672 609.171 15.8978 604.396 11.9193C599.722 7.84136 594.45 5.80238 588.582 5.80238C582.614 5.80238 577.293 7.89109 572.618 12.0685C567.943 16.1465 564.263 21.9153 561.578 29.375C558.992 36.7352 557.699 45.3884 557.699 55.3346C557.699 65.3803 559.091 74.0833 561.876 81.4435C564.661 88.8037 568.441 94.5228 573.215 98.6008C577.989 102.579 583.261 104.569 589.029 104.569Z" fill="#111111"/>
<path d="M436.458 108V102.181C441.034 101.983 444.415 101.585 446.604 100.988C448.891 100.292 450.383 99.0981 451.079 97.4073C451.875 95.6169 452.273 92.9315 452.273 89.3508V21.0202C452.273 17.4395 451.875 14.8038 451.079 13.1129C450.383 11.3226 448.891 10.0793 446.604 9.38307C444.415 8.68684 441.034 8.28899 436.458 8.18953V2.37097C447.101 2.66936 464.109 2.81855 487.483 2.81855C491.859 2.81855 496.036 2.81855 500.015 2.81855C503.993 2.71909 507.723 2.66936 511.204 2.66936C514.686 2.5699 517.868 2.47043 520.753 2.37097C520.753 8.43818 520.952 14.3065 521.35 19.9758C521.847 25.5457 522.493 30.9664 523.289 36.2379H517.321C515.829 29.4745 513.989 24.1035 511.801 20.125C509.712 16.047 507.027 13.1129 503.745 11.3226C500.562 9.53227 496.583 8.63711 491.809 8.63711H474.95V89.3508C474.95 92.9315 475.398 95.6169 476.293 97.4073C477.188 99.0981 479.028 100.292 481.813 100.988C484.698 101.585 489.074 101.983 494.942 102.181V108C491.76 107.901 487.582 107.801 482.41 107.702C477.238 107.602 471.121 107.552 464.059 107.552C458.688 107.552 453.616 107.602 448.842 107.702C444.167 107.801 440.039 107.901 436.458 108ZM470.176 58.9153V53.0968H498.374V58.9153H470.176ZM500.612 80.6976C500.114 75.5255 499.17 71.3481 497.777 68.1653C496.484 64.9825 494.644 62.6452 492.257 61.1532C489.969 59.6613 486.985 58.9153 483.305 58.9153V53.0968C488.278 53.0968 492.108 51.5054 494.793 48.3226C497.578 45.1398 499.368 40.3159 500.164 33.8508H505.833C505.436 39.6196 505.237 44.0954 505.237 47.2782C505.237 50.461 505.237 53.3952 505.237 56.0806C505.237 58.2688 505.286 60.457 505.386 62.6452C505.485 64.8333 505.585 67.3696 505.684 70.254C505.883 73.039 506.082 76.5202 506.281 80.6976H500.612Z" fill="#111111"/>
<path d="M349.311 108V102.181C355.08 102.082 359.407 101.734 362.291 101.137C365.275 100.441 367.264 99.0981 368.259 97.1089C369.253 95.1196 369.751 92.1358 369.751 88.1573V8.63711H364.976C360.6 8.63711 356.82 9.68146 353.638 11.7702C350.455 13.7594 347.72 17.0417 345.432 21.6169C343.144 26.1922 341.155 32.2097 339.464 39.6694H333.497C334.392 33.4032 335.038 27.1868 335.436 21.0202C335.834 14.8535 336.083 8.6371 336.182 2.37097C340.558 2.47043 345.333 2.5699 350.505 2.66936C355.776 2.76882 361.048 2.81855 366.319 2.81855C371.69 2.81855 376.614 2.81855 381.089 2.81855C385.466 2.81855 390.29 2.81855 395.561 2.81855C400.833 2.81855 406.104 2.76882 411.376 2.66936C416.747 2.5699 421.62 2.47043 425.997 2.37097C426.096 8.6371 426.345 14.8535 426.743 21.0202C427.14 27.1868 427.787 33.4032 428.682 39.6694H422.714C421.421 34.0995 419.979 29.3253 418.388 25.3468C416.796 21.3683 414.956 18.1855 412.868 15.7984C410.878 13.3118 408.591 11.5215 406.005 10.4274C403.419 9.23388 400.435 8.63711 397.053 8.63711H392.428V88.1573C392.428 92.1358 392.925 95.1196 393.92 97.1089C394.915 99.0981 396.854 100.441 399.739 101.137C402.722 101.734 407.099 102.082 412.868 102.181V108C409.386 107.901 404.811 107.801 399.142 107.702C393.572 107.602 387.654 107.552 381.388 107.552C374.724 107.552 368.557 107.602 362.888 107.702C357.218 107.801 352.693 107.901 349.311 108Z" fill="#111111"/>
<path d="M225.255 108V102.181C229.83 101.983 233.212 101.585 235.4 100.988C237.688 100.292 239.18 99.0981 239.876 97.4073C240.672 95.6169 241.069 92.9315 241.069 89.3508V21.0202C241.069 17.4395 240.672 14.8038 239.876 13.1129C239.18 11.3226 237.688 10.0793 235.4 9.38307C233.212 8.68684 229.83 8.28899 225.255 8.18953V2.37097C227.045 2.47043 230.029 2.5699 234.206 2.66936C238.483 2.66936 243.655 2.66936 249.723 2.66936C253.204 2.66936 256.287 2.66936 258.973 2.66936C261.658 2.66936 264.045 2.66936 266.134 2.66936C268.322 2.5699 270.262 2.52017 271.952 2.52017C273.743 2.4207 275.284 2.37097 276.577 2.37097C290.403 2.37097 300.846 4.60888 307.908 9.08469C314.97 13.5605 318.501 20.125 318.501 28.7782C318.501 34.746 316.711 39.8683 313.13 44.1452C309.549 48.422 304.377 51.7043 297.614 53.9919C290.95 56.2796 282.794 57.4234 273.146 57.4234H253.602V53.5444H273.295C281.053 53.5444 286.822 51.6546 290.602 47.875C294.381 43.996 296.271 38.1277 296.271 30.2702C296.271 22.8105 294.481 17.2903 290.9 13.7097C287.419 10.0296 281.998 8.18953 274.638 8.18953H263.747V89.3508C263.747 92.832 264.095 95.4677 264.791 97.2581C265.587 99.0484 267.129 100.292 269.416 100.988C271.704 101.585 275.086 101.983 279.561 102.181V108C274.588 107.702 265.587 107.552 252.557 107.552C239.329 107.552 230.228 107.702 225.255 108ZM315.517 110.089C309.151 110.089 304.327 108.647 301.045 105.762C297.862 102.778 295.575 97.8051 294.182 90.8427L291.049 75.0282C290.154 70.9503 289.01 67.8172 287.618 65.629C286.325 63.3414 284.534 61.7003 282.247 60.7056C280.059 59.711 277.075 59.2137 273.295 59.2137H254.646V55.3347H271.952C281.6 55.3347 289.309 56.0806 295.077 57.5726C300.846 59.0645 305.272 61.6008 308.356 65.1815C311.439 68.7621 313.776 73.7849 315.368 80.25L317.606 89.6492C318.501 93.4288 319.595 96.1142 320.888 97.7056C322.181 99.297 323.922 100.043 326.11 99.9436C327.303 99.9436 328.348 99.7446 329.243 99.3468C330.237 98.8495 331.232 98.1035 332.227 97.1089L335.061 101.435C332.475 104.419 329.641 106.608 326.557 108C323.474 109.392 319.794 110.089 315.517 110.089Z" fill="#111111"/>
<path d="M159.639 110.089C148.698 110.089 139.1 107.851 130.845 103.375C122.689 98.7997 116.323 92.4341 111.748 84.2782C107.173 76.1223 104.885 66.5242 104.885 55.4838C104.885 44.543 107.173 34.9449 111.748 26.6895C116.423 18.4341 122.838 11.9691 130.994 7.29432C139.25 2.61959 148.848 0.282227 159.788 0.282227C170.729 0.282227 180.327 2.56986 188.583 7.14512C196.838 11.6209 203.204 17.9368 207.68 26.0927C212.255 34.2486 214.543 43.8467 214.543 54.8871C214.543 65.7285 212.255 75.3266 207.68 83.6814C203.104 91.9368 196.689 98.4018 188.434 103.077C180.178 107.751 170.58 110.089 159.639 110.089ZM159.938 104.569C165.905 104.569 171.227 102.53 175.901 98.4516C180.576 94.2742 184.206 88.5053 186.793 81.1451C189.478 73.6854 190.821 64.9825 190.821 55.0363C190.821 44.9906 189.428 36.2876 186.643 28.9274C183.858 21.5672 180.079 15.8978 175.305 11.9193C170.63 7.84136 165.358 5.80238 159.49 5.80238C153.522 5.80238 148.201 7.89109 143.526 12.0685C138.852 16.1465 135.172 21.9153 132.486 29.375C129.9 36.7352 128.607 45.3884 128.607 55.3346C128.607 65.3803 130 74.0833 132.784 81.4435C135.569 88.8037 139.349 94.5228 144.123 98.6008C148.897 102.579 154.169 104.569 159.938 104.569Z" fill="#111111"/>
<path d="M0.862915 108V102.181C5.43818 101.983 8.8199 101.585 11.0081 100.988C13.2957 100.292 14.7876 99.0981 15.4839 97.4073C16.2796 95.6169 16.6774 92.9315 16.6774 89.3508V21.0202C16.6774 17.4395 16.2796 14.8038 15.4839 13.1129C14.7876 11.3226 13.2957 10.0793 11.0081 9.38307C8.8199 8.68684 5.43818 8.28899 0.862915 8.18953V2.37097C2.15593 2.47043 3.89652 2.5699 6.08469 2.66936C8.27286 2.66936 11.0081 2.66936 14.2903 2.66936C17.6721 2.66936 21.6008 2.66936 26.0766 2.66936C32.6411 2.66936 38.0618 2.66936 42.3387 2.66936C46.7151 2.5699 50.0471 2.52017 52.3347 2.52017C66.16 2.52017 76.703 5.20565 83.9637 10.5766C91.2245 15.8481 94.8549 23.5067 94.8549 33.5524C94.8549 40.5148 93.0645 46.4825 89.4839 51.4556C85.9032 56.4288 80.7312 60.2581 73.9678 62.9436C67.2043 65.5296 59.0484 66.8226 49.5 66.8226C47.4113 66.8226 45.3226 66.7728 43.2339 66.6734C41.1452 66.4745 39.2057 66.2258 37.4153 65.9274C35.625 65.5296 34.0833 65.1815 32.7903 64.8831V59.0645C34.6801 59.6613 36.8186 60.1586 39.2057 60.5565C41.6922 60.8548 44.2782 61.004 46.9637 61.004C55.3186 61.004 61.4355 58.8656 65.3145 54.5887C69.1936 50.2124 71.1331 43.3992 71.1331 34.1492C71.1331 25.1976 69.3925 18.6331 65.9113 14.4556C62.5296 10.2782 57.2083 8.18953 49.9476 8.18953H39.3548V88.9032C39.3548 92.5833 39.8024 95.3683 40.6976 97.2581C41.6922 99.0484 43.6317 100.292 46.5161 100.988C49.5 101.684 53.9261 102.082 59.7944 102.181V108C57.9046 107.901 55.418 107.851 52.3347 107.851C49.2514 107.751 45.6707 107.702 41.5928 107.702C37.6143 107.602 33.2876 107.552 28.6129 107.552C22.6452 107.552 17.3737 107.602 12.7984 107.702C8.22313 107.801 4.24464 107.901 0.862915 108Z" fill="#111111"/>
</svg>
